<?xml version="1.0" encoding="iso-8859-1"?>
<!-- Generator: Adobe Illustrator 19.0.0, SVG Export Plug-In . SVG Version: 6.00 Build 0)  -->
<svg version="1.1" id="Layer_1" xmlns="http://www.w3.org/2000/svg" xmlns:xlink="http://www.w3.org/1999/xlink" x="0px" y="0px"
	 viewBox="0 0 485 485" style="enable-background:new 0 0 485 485;" xml:space="preserve">
<g>
	<g>
		<g>
			<path d="M367.5,0h-250C102.336,0,90,12.336,90,27.5v430c0,15.164,12.336,27.5,27.5,27.5h250c15.164,0,27.5-12.336,27.5-27.5v-430
				C395,12.336,382.664,0,367.5,0z M380,457.5c0,6.893-5.607,12.5-12.5,12.5h-250c-6.893,0-12.5-5.607-12.5-12.5V405h275V457.5z
				 M380,390H105V95h275V390z M380,80H105V27.5c0-6.893,5.607-12.5,12.5-12.5h250c6.893,0,12.5,5.607,12.5,12.5V80z"/>
			<rect x="197" y="40.75" width="90" height="15"/>
			<rect x="222.5" y="430" width="40" height="15"/>
		</g>
	</g>
</g>
<g>
</g>
<g>
</g>
<g>
</g>
<g>
</g>
<g>
</g>
<g>
</g>
<g>
</g>
<g>
</g>
<g>
</g>
<g>
</g>
<g>
</g>
<g>
</g>
<g>
</g>
<g>
</g>
<g>
</g>
</svg>
